<svg width="512" height="512" viewBox="0 0 512 512" fill="none" xmlns="http://www.w3.org/2000/svg">
  <rect width="512" height="512" rx="112" fill="#0F172A"/>
  <path d="M132 196C132 163.967 157.967 138 190 138H322C354.033 138 380 163.967 380 196V316C380 348.033 354.033 374 322 374H190C157.967 374 132 348.033 132 316V196Z" fill="#197BFF"/>
  <path d="M168 210C168 188.461 185.461 171 207 171H305C326.539 171 344 188.461 344 210V303C344 324.539 326.539 342 305 342H207C185.461 342 168 324.539 168 303V210Z" fill="#FFFFFF" fill-opacity="0.95"/>
  <path d="M204 236C204 220.536 216.536 208 232 208H280C295.464 208 308 220.536 308 236V282C308 297.464 295.464 310 280 310H232C216.536 310 204 297.464 204 282V236Z" fill="#197BFF"/>
  <path d="M230 251H282" stroke="#FFFFFF" stroke-width="18" stroke-linecap="round"/>
  <path d="M256 225V293" stroke="#FFFFFF" stroke-width="18" stroke-linecap="round"/>
  <path d="M185 138L211 102H301L327 138H185Z" fill="#00A663"/>
</svg>
